<?xml version="1.0" encoding="UTF-8" standalone="no"?>
<svg
   sodipodi:docname="abraflexi-revolut-social-preview.svg"
   inkscape:version="1.2.2 (b0a8486541, 2022-12-01)"
   id="svg8"
   version="1.1"
   viewBox="0 0 1280 640"
   height="640mm"
   width="1280mm"
   inkscape:export-filename="abraflexi-revolut-social-preview.png"
   inkscape:export-xdpi="25.4"
   inkscape:export-ydpi="25.4"
   xmlns:inkscape="http://www.inkscape.org/namespaces/inkscape"
   xmlns:sodipodi="http://sodipodi.sourceforge.net/DTD/sodipodi-0.dtd"
   xmlns:xlink="http://www.w3.org/1999/xlink"
   xmlns="http://www.w3.org/2000/svg"
   xmlns:svg="http://www.w3.org/2000/svg"
   xmlns:rdf="http://www.w3.org/1999/02/22-rdf-syntax-ns#"
   xmlns:cc="http://creativecommons.org/ns#"
   xmlns:dc="http://purl.org/dc/elements/1.1/">
  <defs
     id="defs2">
    <inkscape:path-effect
       effect="perspective-envelope"
       up_left_point="-22.859595,140.15918"
       up_right_point="-20.133806,140.17628"
       down_left_point="-28.513404,155.95033"
       down_right_point="-14.536702,155.95033"
       id="path-effect794"
       is_visible="true"
       lpeversion="1"
       deform_type="perspective"
       horizontal_mirror="false"
       vertical_mirror="true"
       overflow_perspective="true" />
    <clipPath
       id="clipPath3444">
      <path
         id="path3446"
         d="M 11.52,162 C 11.52,81.677 135.307,16.56 288,16.56 440.693,16.56 564.48,81.678 564.48,162 564.48,242.322 440.693,307.44 288,307.44 135.307,307.44 11.52,242.32 11.52,162" />
    </clipPath>
    <radialGradient
       id="radialGradient3452"
       cx="0"
       cy="0"
       r="1"
       fx="0"
       fy="0"
       gradientTransform="matrix(363.06,0,0,-363.06,177.52,256.31)"
       gradientUnits="userSpaceOnUse"
       spreadMethod="pad">
      <stop
         id="stop3454"
         offset="0"
         stop-color="#aeb2d5" />
      <stop
         id="stop3456"
         offset="0.3"
         stop-color="#aeb2d5" />
      <stop
         id="stop3458"
         offset="0.75"
         stop-color="#484c89" />
      <stop
         id="stop3460"
         offset="1"
         stop-color="#484c89" />
    </radialGradient>
    <clipPath
       id="clipPath3468">
      <path
         id="path3470"
         d="M 0,324 H 576 V 0 H 0 Z" />
    </clipPath>
    <filter
       style="color-interpolation-filters:sRGB"
       inkscape:label="Drop Shadow"
       id="filter4622"
       x="-0.1215186"
       y="-0.21051334"
       width="1.29367"
       height="1.5087406">
      <feFlood
         flood-opacity="0.498039"
         flood-color="rgb(0,0,0)"
         result="flood"
         id="feFlood4612" />
      <feComposite
         in="flood"
         in2="SourceGraphic"
         operator="in"
         result="composite1"
         id="feComposite4614" />
      <feGaussianBlur
         in="composite1"
         stdDeviation="6"
         result="blur"
         id="feGaussianBlur4616" />
      <feOffset
         dx="6"
         dy="6"
         result="offset"
         id="feOffset4618" />
      <feComposite
         in="SourceGraphic"
         in2="offset"
         operator="over"
         result="fbSourceGraphic"
         id="feComposite4620" />
      <feColorMatrix
         result="fbSourceGraphicAlpha"
         in="fbSourceGraphic"
         values="0 0 0 -1 0 0 0 0 -1 0 0 0 0 -1 0 0 0 0 1 0"
         id="feColorMatrix4624" />
      <feFlood
         id="feFlood4626"
         flood-opacity="0.498039"
         flood-color="rgb(0,0,0)"
         result="flood"
         in="fbSourceGraphic" />
      <feComposite
         in2="fbSourceGraphic"
         id="feComposite4628"
         in="flood"
         operator="in"
         result="composite1" />
      <feGaussianBlur
         id="feGaussianBlur4630"
         in="composite1"
         stdDeviation="6"
         result="blur" />
      <feOffset
         id="feOffset4632"
         dx="6"
         dy="6"
         result="offset" />
      <feComposite
         in2="offset"
         id="feComposite4634"
         in="fbSourceGraphic"
         operator="over"
         result="fbSourceGraphic" />
      <feColorMatrix
         result="fbSourceGraphicAlpha"
         in="fbSourceGraphic"
         values="0 0 0 -1 0 0 0 0 -1 0 0 0 0 -1 0 0 0 0 1 0"
         id="feColorMatrix4636" />
      <feFlood
         id="feFlood4638"
         flood-opacity="0.498039"
         flood-color="rgb(0,0,0)"
         result="flood"
         in="fbSourceGraphic" />
      <feComposite
         in2="fbSourceGraphic"
         id="feComposite4640"
         in="flood"
         operator="in"
         result="composite1" />
      <feGaussianBlur
         id="feGaussianBlur4642"
         in="composite1"
         stdDeviation="6"
         result="blur" />
      <feOffset
         id="feOffset4644"
         dx="6"
         dy="6"
         result="offset" />
      <feComposite
         in2="offset"
         id="feComposite4646"
         in="fbSourceGraphic"
         operator="over"
         result="composite2" />
    </filter>
    <filter
       style="color-interpolation-filters:sRGB"
       inkscape:label="Blur"
       id="filter2058">
      <feGaussianBlur
         stdDeviation="10.5635 0.01"
         result="fbSourceGraphic"
         id="feGaussianBlur2056" />
      <feColorMatrix
         result="fbSourceGraphicAlpha"
         in="fbSourceGraphic"
         values="0 0 0 -1 0 0 0 0 -1 0 0 0 0 -1 0 0 0 0 1 0"
         id="feColorMatrix2060" />
      <feGaussianBlur
         id="feGaussianBlur2062"
         stdDeviation="10.5635 0.01"
         result="blur"
         in="fbSourceGraphic" />
    </filter>
    <linearGradient
       id="XMLID_1_"
       gradientUnits="userSpaceOnUse"
       x1="168.0361"
       y1="168.21001"
       x2="83.149902"
       y2="83.324303">
      <stop
         offset="0"
         style="stop-color:#6D7BB0"
         id="stop164" />
      <stop
         offset="1"
         style="stop-color:#99ACD2"
         id="stop165" />
    </linearGradient>
    <linearGradient
       id="XMLID_2_"
       gradientUnits="userSpaceOnUse"
       x1="168.7178"
       y1="174.6357"
       x2="83.831703"
       y2="89.750298">
      <stop
         offset="0"
         style="stop-color:#6D7BB0"
         id="stop171" />
      <stop
         offset="1"
         style="stop-color:#99ACD2"
         id="stop172" />
    </linearGradient>
    <linearGradient
       id="XMLID_3_"
       gradientUnits="userSpaceOnUse"
       x1="126.9795"
       y1="130.9922"
       x2="233.56219"
       y2="237.576"
       gradientTransform="matrix(0.9929,-0.1191,-0.056,1.0138,7.7556,8.876)">
      <stop
         offset="0"
         style="stop-color:#D8E1ED"
         id="stop178" />
      <stop
         offset="1"
         style="stop-color:#5E76AA"
         id="stop179" />
    </linearGradient>
    <linearGradient
       id="XMLID_4_"
       gradientUnits="userSpaceOnUse"
       x1="126.0381"
       y1="144.81841"
       x2="126.0381"
       y2="77.567299">
      <stop
         offset="0"
         style="stop-color:#808DC2"
         id="stop185" />
      <stop
         offset="1"
         style="stop-color:#5E76AA"
         id="stop186" />
    </linearGradient>
    <linearGradient
       id="XMLID_5_"
       gradientUnits="userSpaceOnUse"
       x1="121.2769"
       y1="91.971703"
       x2="121.2769"
       y2="13.3879"
       gradientTransform="matrix(0.9929,-0.1191,-0.056,1.0138,7.7556,8.876)">
      <stop
         offset="0"
         style="stop-color:#DBE8F2"
         id="stop192" />
      <stop
         offset="0.2847"
         style="stop-color:#D9E6F1"
         id="stop193" />
      <stop
         offset="0.4359"
         style="stop-color:#D1DFED"
         id="stop194" />
      <stop
         offset="0.5557"
         style="stop-color:#C3D3E7"
         id="stop195" />
      <stop
         offset="0.659"
         style="stop-color:#B0C3DF"
         id="stop196" />
      <stop
         offset="0.7518"
         style="stop-color:#97ADD3"
         id="stop197" />
      <stop
         offset="0.837"
         style="stop-color:#7893C5"
         id="stop198" />
      <stop
         offset="0.9163"
         style="stop-color:#5473B5"
         id="stop199" />
      <stop
         offset="0.9891"
         style="stop-color:#2B50A2"
         id="stop200" />
      <stop
         offset="1"
         style="stop-color:#244A9F"
         id="stop201" />
    </linearGradient>
    <filter
       inkscape:label="In and Out"
       inkscape:menu="Shadows and Glows"
       inkscape:menu-tooltip="Inner colorized shadow, outer black shadow"
       style="color-interpolation-filters:sRGB;"
       id="filter4400"
       x="-0.039308628"
       y="-0.1717874"
       width="1.0990905"
       height="1.4330474">
      <feGaussianBlur
         result="result0"
         in="SourceAlpha"
         stdDeviation="4"
         id="feGaussianBlur4394" />
      <feOffset
         dx="5"
         dy="5"
         result="result4"
         id="feOffset4396" />
      <feComposite
         in="SourceGraphic"
         in2="result4"
         operator="xor"
         result="result3"
         id="feComposite4398" />
    </filter>
    <clipPath
       clipPathUnits="userSpaceOnUse"
       id="clipPath225">
      <path
         d="M 64.09713,512 H 447.9029 c 22.2879,0 30.3701,-2.3206 38.5182,-6.6783 8.1482,-4.3577 14.5429,-10.7524 18.9006,-18.9006 C 509.6794,478.273 512,470.1908 512,447.9029 V 64.09713 C 512,41.80916 509.6794,33.72701 505.3217,25.57886 500.964,17.43071 494.5693,11.03599 486.4211,6.678318 478.273,2.32064 470.1908,0 447.9029,0 H 64.09713 C 41.80916,0 33.72701,2.32064 25.57886,6.678318 17.43071,11.03599 11.03599,17.43071 6.678318,25.57886 2.32064,33.72701 0,41.80916 0,64.09713 V 447.9029 c 0,22.2879 2.32064,30.3701 6.678318,38.5182 4.357672,8.1482 10.752392,14.5429 18.900542,18.9006 8.14815,4.3577 16.2303,6.6783 38.51827,6.6783 z"
         clip-rule="evenodd"
         id="path223" />
    </clipPath>
    <clipPath
       clipPathUnits="userSpaceOnUse"
       id="clipPath231">
      <path
         d="M 0,0 H 512 V 512 H 0 Z"
         id="path229" />
    </clipPath>
    <clipPath
       clipPathUnits="userSpaceOnUse"
       id="clipPath241">
      <path
         d="M 310.6214,362 424.7089,162.0939 H 310.6961 l -57.0086,99.4988 z"
         clip-rule="evenodd"
         id="path239" />
    </clipPath>
    <clipPath
       clipPathUnits="userSpaceOnUse"
       id="clipPath247">
      <path
         d="M 0,0 H 512 V 512 H 0 Z"
         id="path245" />
    </clipPath>
    <clipPath
       clipPathUnits="userSpaceOnUse"
       id="clipPath257">
      <path
         d="M 197.1006,362 83.51535,162.0939 H 197.1006 L 310.6214,362 Z"
         clip-rule="evenodd"
         id="path255" />
    </clipPath>
    <clipPath
       clipPathUnits="userSpaceOnUse"
       id="clipPath263">
      <path
         d="M 0,0 H 512 V 512 H 0 Z"
         id="path261" />
    </clipPath>
  </defs>
  <sodipodi:namedview
     inkscape:window-maximized="1"
     inkscape:window-y="0"
     inkscape:window-x="0"
     inkscape:window-height="1120"
     inkscape:window-width="1920"
     showgrid="false"
     inkscape:document-rotation="0"
     inkscape:current-layer="g2598"
     inkscape:document-units="mm"
     inkscape:cy="611.42857"
     inkscape:cx="1654.2857"
     inkscape:zoom="0.175"
     inkscape:pageshadow="2"
     inkscape:pageopacity="0.0"
     borderopacity="1.0"
     bordercolor="#666666"
     pagecolor="#ffffff"
     id="base"
     inkscape:showpageshadow="2"
     inkscape:pagecheckerboard="0"
     inkscape:deskcolor="#d1d1d1" />
  <metadata
     id="metadata5">
    <rdf:RDF>
      <cc:Work
         rdf:about="">
        <dc:format>image/svg+xml</dc:format>
        <dc:type
           rdf:resource="http://purl.org/dc/dcmitype/StillImage" />
      </cc:Work>
    </rdf:RDF>
  </metadata>
  <g
     id="layer1"
     inkscape:groupmode="layer"
     inkscape:label="Vrstva 1" />
  <g
     inkscape:label="Vrstva 3"
     id="layer3"
     inkscape:groupmode="layer">
    <g
       transform="matrix(1.4033481,0,0,1.4033481,120.67578,7.0231252)"
       id="g2598">
      <g
         id="g280"
         transform="matrix(0.49021076,0,0,-0.49021076,506.03346,415.6848)">
        <g
           id="g217" />
        <g
           id="g219">
          <g
             id="g221"
             clip-path="url(#clipPath225)">
            <g
               id="g227"
               clip-path="url(#clipPath231)">
              <path
                 d="M -1,513 H 513 V -1 H -1 Z"
                 style="fill:#f6b102;fill-opacity:1;fill-rule:nonzero;stroke:none"
                 id="path233" />
            </g>
          </g>
        </g>
        <g
           id="g235">
          <g
             id="g237"
             clip-path="url(#clipPath241)">
            <g
               id="g243"
               clip-path="url(#clipPath247)">
              <path
                 d="M 252.6875,363 H 425.7089 V 161.0939 H 252.6875 Z"
                 style="fill:#fdebbf;fill-opacity:1;fill-rule:nonzero;stroke:none"
                 id="path249" />
            </g>
          </g>
        </g>
        <g
           id="g251">
          <g
             id="g253"
             clip-path="url(#clipPath257)">
            <g
               id="g259"
               clip-path="url(#clipPath263)">
              <path
                 d="M 82.51535,363 H 311.6214 V 161.0939 H 82.51535 Z"
                 style="fill:#ffffff;fill-opacity:1;fill-rule:nonzero;stroke:none"
                 id="path265" />
            </g>
          </g>
        </g>
      </g>
      <path
         clip-rule="evenodd"
         d="m 205.56406,103.64249 h 14.28539 v 79.70537 H 205.56406 Z M 321.2546,137.22273 V 124.85396 H 306.48212 V 108.72771 H 292.197 v 58.79171 c 0,5.40208 1.35895,9.51881 4.03915,12.23644 2.67767,2.71987 6.85245,4.09865 12.40617,4.09865 h 12.61228 v -12.36856 h -9.22875 c -2.00699,0 -3.44628,-0.44139 -4.28017,-1.31272 -0.76608,-0.79752 -1.26303,-2.81206 -1.26303,-5.13179 v -27.81871 z m -212.73052,30.61117 14.77101,-42.98162 h 15.00829 l -21.32316,58.49633 H 100.06833 L 78.744901,124.85228 H 93.7532 Z m 160.38767,-13.67751 c 0,3.70329 -0.56223,6.92505 -1.66791,9.57559 -1.09782,2.63624 -2.67008,4.65731 -4.67466,6.00544 -2.00446,1.34813 -4.46856,2.03187 -7.32462,2.03187 -4.08432,0 -7.16648,-1.34236 -9.15841,-3.98839 -2.01445,-2.67415 -3.03686,-6.72709 -3.03686,-12.04552 v -30.88152 h -14.28512 v 32.46049 c 0,5.05443 0.63018,9.34147 1.87895,12.74057 1.24838,3.4094 2.96399,6.18277 5.09661,8.24153 2.13262,2.05648 4.6219,3.54176 7.40003,4.41615 2.76307,0.86987 5.73717,1.31046 8.83678,1.31046 4.46616,0 8.16371,-0.81004 10.9846,-2.4079 2.57215,-1.46168 4.72982,-3.17052 6.41785,-5.08684 l 1.27902,6.81929 h 12.5394 v -58.49375 h -14.28512 z m -85.18579,-26.21774 c -4.50213,-2.49612 -9.84814,-3.76072 -15.88748,-3.76072 -5.96554,0 -11.2917,1.26463 -15.831,3.7599 -4.54449,2.50178 -8.11534,6.03475 -10.61368,10.50065 -2.49461,4.46187 -3.75937,9.75042 -3.75937,15.71791 0,5.89442 1.26436,11.14604 3.75937,15.6079 2.49674,4.46439 6.06839,7.99661 10.61368,10.49796 4.5393,2.49557 9.86573,3.76005 15.831,3.76005 6.03908,0 11.38509,-1.26449 15.88748,-3.76081 4.5068,-2.50008 8.05859,-6.03205 10.5564,-10.4972 2.49541,-4.46438 3.76057,-9.716 3.76057,-15.6079 0,-5.96524 -1.2657,-11.25377 -3.76057,-15.71816 -2.49928,-4.46639 -6.0504,-7.99963 -10.5564,-10.49958 z m -7.54751,41.79551 c -2.30143,1.49859 -5.10713,2.25893 -8.33917,2.25893 -3.15797,0 -5.94568,-0.76008 -8.28575,-2.25944 -2.34419,-1.50111 -4.18237,-3.61964 -5.46512,-6.29781 -1.28834,-2.68069 -1.94223,-5.80223 -1.94223,-9.27945 0,-3.54879 0.65283,-6.68841 1.94223,-9.33268 1.28168,-2.642 3.12173,-4.76129 5.46805,-6.30008 2.3394,-1.53728 5.12632,-2.31646 8.28255,-2.31646 3.23044,0 6.03482,0.77913 8.33691,2.3147 2.30875,1.53979 4.13028,3.65984 5.41542,6.3026 1.28701,2.65054 1.94037,5.79041 1.94037,9.33218 0,3.46918 -0.65283,6.59171 -1.94037,9.27919 -1.28434,2.67868 -3.10574,4.79746 -5.41289,6.29832 z M -27.774041,123.31349 h -14.846687 v 60.03512 h 14.846687 z m 46.558503,3.43304 c 0,-12.73902 -10.3736017,-23.10318 -23.1252374,-23.10318 H -42.620728 v 12.82089 h 36.4598896 c 5.77075001,0 10.5509317,4.53366 10.6567167,10.10574 0.05329,2.79002 -0.9939002,5.42323 -2.9485267,7.41442 -1.95475999,1.99168 -4.566612,3.08936 -7.35433,3.08936 H -20.010027 c -0.504944,0 -0.915295,0.40969 -0.915295,0.9141 v 11.39469 c 0,0.19399 0.05329,0.37904 0.171868,0.53506 L 3.344233,183.34889 H 20.983966 L -3.1696784,149.82617 C 8.9941433,149.21558 18.783263,138.99539 18.783263,126.74655 Z m 45.652404,0.85174 c -4.276703,-2.26994 -9.354788,-3.4203 -15.093164,-3.4203 -5.745703,0 -10.882809,1.26543 -15.269027,3.76232 -4.393546,2.49936 -7.849948,6.03309 -10.27288,10.50125 -2.420535,4.45811 -3.647323,9.78357 -3.647323,15.82919 0,5.89215 1.245707,11.142 3.704079,15.60464 2.463701,4.47292 6.017227,7.98705 10.560258,10.44444 4.534371,2.45764 9.973644,3.70329 16.165004,3.70329 4.911813,0 9.322679,-0.92009 13.110026,-2.73646 3.788279,-1.82087 6.880828,-4.30035 9.192513,-7.37015 2.195907,-2.91756 3.677431,-6.21743 4.402206,-9.80693 l 0.07994,-0.38304 H 63.161449 l -0.06661,0.23009 c -0.782064,2.67743 -2.29996,4.79295 -4.512388,6.28929 -2.374702,1.60886 -5.29152,2.42498 -8.670781,2.42498 -2.864059,0 -5.450865,-0.61366 -7.687673,-1.82389 -2.226018,-1.2032 -3.966542,-2.92385 -5.172013,-5.11597 -1.209734,-2.19967 -1.898936,-4.84645 -2.046156,-7.85067 v -0.46977 h 42.913715 l 0.05329,-0.2622 c 0.149218,-0.82337 0.246477,-1.67191 0.287778,-2.5252 0.03997,-0.83149 0.05329,-1.66188 0.05329,-2.50009 -0.07994,-5.66759 -1.343365,-10.65269 -3.764565,-14.81841 -2.430792,-4.17049 -5.831371,-7.43645 -10.107407,-9.70638 z m -5.205587,11.01583 c 2.440785,2.05423 3.959215,4.9733 4.516119,8.6821 H 35.496911 c 0.322418,-2.40638 1.121802,-4.49051 2.376968,-6.2001 1.316318,-1.79324 3.003418,-3.20216 5.014267,-4.18782 2.012982,-0.98871 4.223277,-1.49056 6.568136,-1.49056 3.964011,-2.5e-4 7.252809,1.0753 9.774997,3.19638 z"
         fill-rule="evenodd"
         id="path2"
         style="fill:#000000;stroke-width:2.51189" />
      <g
         id="g622"
         transform="matrix(0.66782034,0.11881869,-0.11881869,0.66782034,168.05781,33.801201)">
        <use
           id="use1503"
           xlink:href="#rect899"
           transform="translate(10,10)"
           height="1052.3622"
           width="744.09448"
           y="0"
           x="0" />
        <path
           id="rect899"
           style="fill:#6699ff;fill-opacity:0.75;fill-rule:evenodd;stroke:#000000;stroke-width:15;stroke-linecap:round;stroke-linejoin:round"
           d="m 283.28,141.85 23.41,118.56 -240.35,-25 0.004,157.93 240.35,-25 -23.41,111.22 234.66,-165.18 -234.66,-172.53 z" />
      </g>
      <text
         xml:space="preserve"
         style="font-style:normal;font-weight:normal;font-size:24.8369px;line-height:1.25;font-family:sans-serif;fill:#000000;fill-opacity:1;stroke:none;stroke-width:0.332638;filter:url(#filter4400)"
         x="384.16696"
         y="113.40381"
         id="text4342"><tspan
           sodipodi:role="line"
           id="tspan4340"
           style="font-size:24.8369px;stroke-width:0.332638"
           x="384.16696"
           y="113.40381">To AbraFlexi </tspan><tspan
           sodipodi:role="line"
           style="font-size:24.8369px;stroke-width:0.332638"
           x="384.16696"
           y="144.44994"
           id="tspan5130">Statements Importer</tspan></text>
    </g>
  </g>
  <g
     inkscape:label="Vrstva 2"
     id="layer2"
     inkscape:groupmode="layer" />
</svg>
